<?xml version="1.0" standalone="no"?>
<!DOCTYPE svg PUBLIC "-//W3C//DTD SVG 1.1//EN" "http://www.w3.org/Graphics/SVG/1.1/DTD/svg11.dtd" >
<svg xmlns="http://www.w3.org/2000/svg">
<metadata>Generated by IcoMoon</metadata>
<defs>
<font id="icomoon" horiz-adv-x="1024">
<font-face units-per-em="1024" ascent="960" descent="-64" />
<missing-glyph horiz-adv-x="1024" />
<glyph unicode="&#x20;" horiz-adv-x="512" d="" />
<glyph unicode="&#xe900;" glyph-name="pencil" d="M707.87 938.667l-707.87-707.87v-316.13h316.13l707.87 707.87zM150.569 215.153l482.994 482.342 148.614-149.917-482.342-482.342z" />
<glyph unicode="&#xe901;" glyph-name="exclamation" horiz-adv-x="205" d="M0 938.667h204.8v-716.8h-204.8v716.8zM0 119.467h204.8v-204.8h-204.8v204.8z" />
<glyph unicode="&#xe902;" glyph-name="i" horiz-adv-x="205" d="M0 938.667h204.8v-204.8h-204.8v204.8zM0 631.467h204.8v-716.8h-79.872c-68.996 0-124.928 55.932-124.928 124.928v0 591.872z" />
<glyph unicode="&#xe903;" glyph-name="question" horiz-adv-x="578" d="M203.225 72.205h157.538v-157.538h-157.538v157.538zM300.898 938.667c-5.171 0.319-11.215 0.5-17.301 0.5-82.787 0-157.725-33.61-211.912-87.928l-0.006-0.006c-44.822-50.151-72.218-116.705-72.218-189.657 0-6.159 0.195-12.273 0.58-18.335l-0.042 0.828 157.538 11.028c-0.034 1.139-0.054 2.478-0.054 3.822 0 32.748 11.618 62.781 30.958 86.204l-0.184-0.23c26.36 22.899 61.021 36.855 98.942 36.855 4.823 0 9.593-0.226 14.3-0.667l-0.602 0.046c68.702-9.379 121.076-67.678 121.076-138.209 0-6.818-0.489-13.522-1.435-20.078l0.089 0.749c-11.052-44.294-39.717-80.428-77.941-101.2l-0.829-0.412c-20.151-12.677-37.663-26.182-53.785-41.164l0.222 0.204c-50.22-41.297-82.327-103.036-83.493-172.309l-0.003-0.196v-157.538h157.538v78.769c0 78.769 0 104.763 35.446 137.846 8.11 7.176 17.134 13.69 26.77 19.265l0.8 0.427c87.539 45.468 147.501 133.317 152.784 235.624l0.028 0.684c0 231.582-143.36 315.077-277.268 315.077z" />
<glyph unicode="&#xe904;" glyph-name="checkmark" horiz-adv-x="1094" d="M344.395-84.185l-344.395 415.57 176.789 146.942 171.049-206.637 571.695 666.978 174.493-149.238-749.632-873.614z" />
<glyph unicode="&#xe905;" glyph-name="resize-smaller" d="M219.429-85.333h146.286v365.714h-365.714v-146.286h219.429v-219.429zM219.429 938.667v-219.429h-219.429v-146.286h365.714v365.714h-146.286zM804.571-85.333v219.429h219.429v146.286h-365.714v-365.714h146.286zM804.571 938.667h-146.286v-365.714h365.714v146.286h-219.429v219.429z" />
<glyph unicode="&#xe906;" glyph-name="resize" d="M146.286 280.381h-146.286v-365.714h365.714v146.286h-219.429v219.429zM146.286 572.953v219.429h219.429v146.286h-365.714v-365.714h146.286zM877.714 280.381v-219.429h-219.429v-146.286h365.714v365.714h-146.286zM877.714 572.953h146.286v365.714h-365.714v-146.286h219.429v-219.429z" />
<glyph unicode="&#xe907;" glyph-name="x" d="M1022.794 85.937l-340.127 341.333 340.127 341.333-170.064 170.064-341.333-341.333-341.333 341.333-170.064-170.064 341.333-341.333-341.333-341.333 170.064-170.064 341.333 340.127 341.333-340.127 170.064 170.064z" />
<glyph unicode="&#xe908;" glyph-name="checkmark-circle-filled" d="M512 938.667c-282.77 0-512-229.23-512-512s229.23-512 512-512c282.77 0 512 229.23 512 512v0c0 282.77-229.23 512-512 512v0zM424.448 158.891l-153.6 185.344 78.848 65.536 76.288-92.16 256 297.472 77.824-66.56z" />
<glyph unicode="&#xe909;" glyph-name="down-left-arrow" horiz-adv-x="1049" d="M1049.061 838.425l-803.328-776.876 736.5-4.873-6.961-142.010-975.271 6.265 26.453 974.575 142.706 2.785-20.188-736.5 803.328 776.876 96.761-100.242z" />
<glyph unicode="&#xe90a;" glyph-name="down-right-arrow" horiz-adv-x="1000" d="M97.912 938.667l759.501-783.979 4.080 720.064 138.709-6.799-4.76-952.606-952.606 24.478-2.040 138.709 719.384-18.359-760.181 783.979 97.912 94.513z" />
<glyph unicode="&#xe90b;" glyph-name="exclamation-circle-filled" d="M512 938.667c-282.77 0-512-229.23-512-512s229.23-512 512-512c282.77 0 512 229.23 512 512v0c0 282.77-229.23 512-512 512v0zM463.872 682.667h102.4v-358.4h-102.4zM566.272 170.667h-102.4v102.4h102.4z" />
<glyph unicode="&#xe90c;" glyph-name="i-circle-filled" d="M512 938.667c-282.77 0-512-229.23-512-512s229.23-512 512-512c282.77 0 512 229.23 512 512v0c0 282.77-229.23 512-512 512v0zM566.272 170.667h-39.936c-34.498 0-62.464 27.966-62.464 62.464v295.936h102.4zM566.272 580.267h-102.4v102.4h102.4z" />
<glyph unicode="&#xe90d;" glyph-name="question-circle-filled" d="M512 938.667c-282.77 0-512-229.23-512-512s229.23-512 512-512c282.77 0 512 229.23 512 512v0c0 282.77-229.23 512-512 512v0zM566.272 68.267h-102.4v102.4h102.4zM608.256 375.467c-7.172-4.15-13.377-8.724-19.024-13.897l0.080 0.073c-21.504-21.504-23.040-38.4-23.040-89.6v0-51.2h-102.4v103.424c0.416 44.137 20.093 83.596 51.017 110.437l0.183 0.155c10.335 9.605 21.718 18.384 33.865 26.063l0.951 0.561c27.349 13.243 47.593 37.511 55.141 66.874l0.155 0.71c0.551 3.755 0.866 8.090 0.866 12.499 0 46.024-34.308 84.034-78.744 89.852l-0.458 0.049c-2.823 0.292-6.1 0.459-9.416 0.459-24.493 0-46.861-9.1-63.908-24.104l0.107 0.092c-12.14-15.094-19.484-34.492-19.484-55.606 0-0.791 0.010-1.58 0.031-2.366l-0.002 0.116-102.4-7.68c-0.244 3.564-0.384 7.725-0.384 11.918 0 47.166 17.618 90.216 46.631 122.93l-0.168-0.192c34.918 35.329 83.376 57.209 136.945 57.209 4.238 0 8.445-0.137 12.615-0.407l-0.568 0.029c87.552 0 180.736-51.2 180.736-204.8-3.231-67.013-42.287-124.206-98.311-153.123l-1.017-0.477z" />
<glyph unicode="&#xe90e;" glyph-name="checkmark-circle" d="M512 836.267c226.216 0 409.6-183.384 409.6-409.6s-183.384-409.6-409.6-409.6c-226.216 0-409.6 183.384-409.6 409.6v0c0 226.216 183.384 409.6 409.6 409.6v0zM512 938.667c-282.77 0-512-229.23-512-512s229.23-512 512-512c282.77 0 512 229.23 512 512v0c0 282.77-229.23 512-512 512v0zM424.448 158.891l-153.6 185.344 78.848 65.536 76.288-92.16 254.976 297.472 77.824-66.56-334.336-389.632z" />
<glyph unicode="&#xe90f;" glyph-name="exclamation-circle" d="M463.872 684.203h102.4v-358.4h-102.4v358.4zM463.872 274.603h102.4v-102.4h-102.4v102.4zM512 836.267c226.216 0 409.6-183.384 409.6-409.6s-183.384-409.6-409.6-409.6c-226.216 0-409.6 183.384-409.6 409.6v0c0 226.216 183.384 409.6 409.6 409.6v0zM512 938.667c-282.77 0-512-229.23-512-512s229.23-512 512-512c282.77 0 512 229.23 512 512v0c0 282.77-229.23 512-512 512v0z" />
<glyph unicode="&#xe910;" glyph-name="i-circle" d="M463.872 684.203h102.4v-102.4h-102.4v102.4zM512 836.267c226.216 0 409.6-183.384 409.6-409.6s-183.384-409.6-409.6-409.6c-226.216 0-409.6 183.384-409.6 409.6v0c0 226.216 183.384 409.6 409.6 409.6v0zM512 938.667c-282.77 0-512-229.23-512-512s229.23-512 512-512c282.77 0 512 229.23 512 512v0c0 282.77-229.23 512-512 512v0zM463.872 529.067h102.4v-358.4h-39.936c-34.498 0-62.464 27.966-62.464 62.464v295.936z" />
<glyph unicode="&#xe911;" glyph-name="question-circle" d="M512 836.267c226.216 0 409.6-183.384 409.6-409.6s-183.384-409.6-409.6-409.6c-226.216 0-409.6 183.384-409.6 409.6v0c0 226.216 183.384 409.6 409.6 409.6v0zM512 938.667c-282.77 0-512-229.23-512-512s229.23-512 512-512c282.77 0 512 229.23 512 512v0c0 282.77-229.23 512-512 512v0zM463.872 172.203h102.4v-102.4h-102.4v102.4zM526.848 733.867c-3.457 0.221-7.496 0.348-11.564 0.348-53.554 0-102.001-21.868-136.898-57.162l-0.018-0.018c-28.846-32.522-46.464-75.573-46.464-122.738 0-4.193 0.139-8.354 0.413-12.478l-0.030 0.56 102.4 7.68c-0.018 0.67-0.028 1.459-0.028 2.25 0 21.114 7.345 40.512 19.619 55.779l-0.135-0.173c16.932 14.885 39.28 23.967 63.75 23.967 3.153 0 6.27-0.151 9.346-0.445l-0.392 0.030c44.894-5.867 79.202-43.878 79.202-89.901 0-4.408-0.315-8.743-0.923-12.984l0.057 0.485c-7.633-29.405-27.24-53.201-53.174-66.292l-0.586-0.268c-13.098-8.24-24.481-17.019-34.96-26.756l0.144 0.132c-31.107-26.996-50.784-66.455-51.199-110.519l-0.001-0.073v-102.4h102.4v50.176c0 51.2 0 68.096 23.040 89.6 5.567 5.1 11.772 9.674 18.434 13.55l0.51 0.274c57.041 29.394 96.097 86.587 99.312 153.184l0.016 0.416c-1.536 152.576-94.72 203.776-182.272 203.776z" />
<glyph unicode="&#xe912;" glyph-name="hamburger" d="M0 483.557h1024v-113.778h-1024v113.778zM0 711.112h1024v-113.778h-1024v113.778zM0 256.001h1024v-113.778h-1024v113.778z" />
<glyph unicode="&#xe913;" glyph-name="person-add-outline" horiz-adv-x="1022" d="M360.775 457.634c-132.834 0-240.517 107.683-240.517 240.517s107.683 240.517 240.517 240.517c132.834 0 240.517-107.683 240.517-240.517v0c0-132.834-107.683-240.517-240.517-240.517v0zM360.775 818.409c-66.417 0-120.258-53.842-120.258-120.258s53.842-120.258 120.258-120.258c66.417 0 120.258 53.842 120.258 120.258v0c0 66.417-53.842 120.258-120.258 120.258v0zM721.55 202.084v0 15.032c0 99.625-80.762 180.388-180.388 180.388v0h-360.775c-99.625 0-180.388-80.762-180.388-180.388v0-188.204c98.241-72.716 221.802-116.394 355.564-116.394 138.343 0 265.774 46.72 367.375 125.243l-1.39-1.032v164.754zM120.258 96.858v120.258c0 33.208 26.921 60.129 60.129 60.129v0h360.775c33.208 0 60.129-26.921 60.129-60.129v0-115.448c-69.984-42.024-154.43-66.879-244.682-66.879-86.869 0-168.361 23.027-238.703 63.31l2.352-1.241zM1022.196 577.892h-120.258v120.258h-120.258v-120.258h-120.258v-120.258h120.258v-120.258h120.258v120.258h120.258v120.258z" />
<glyph unicode="&#xe914;" glyph-name="person-remove-outline" horiz-adv-x="1022" d="M360.775 457.634c-132.834 0-240.517 107.683-240.517 240.517s107.683 240.517 240.517 240.517c132.834 0 240.517-107.683 240.517-240.517v0c0-132.834-107.683-240.517-240.517-240.517v0zM360.775 818.409c-66.417 0-120.258-53.842-120.258-120.258s53.842-120.258 120.258-120.258c66.417 0 120.258 53.842 120.258 120.258v0c0 66.417-53.842 120.258-120.258 120.258v0zM721.55 202.084v0 15.032c0 99.625-80.762 180.388-180.388 180.388v0h-360.775c-99.625 0-180.388-80.762-180.388-180.388v0-188.204c98.241-72.716 221.802-116.394 355.564-116.394 138.343 0 265.774 46.72 367.375 125.243l-1.39-1.032v164.754zM120.258 96.858v120.258c0 33.208 26.921 60.129 60.129 60.129v0h360.775c33.208 0 60.129-26.921 60.129-60.129v0-115.448c-69.984-42.024-154.43-66.879-244.682-66.879-86.869 0-168.361 23.027-238.703 63.31l2.352-1.241zM901.938 457.634h120.258v120.258h-360.775v-120.258h240.517z" />
<glyph unicode="&#xe915;" glyph-name="plus-filled-circle" d="M512 938.667c-282.77 0-512-229.23-512-512s229.23-512 512-512c282.77 0 512 229.23 512 512v0c0 282.77-229.23 512-512 512v0zM771.072 375.467h-204.8v-204.8h-102.4v204.8h-204.8v102.4h204.8v204.8h102.4v-204.8h204.8z" />
<glyph unicode="&#xe916;" glyph-name="x-circle" d="M732.16 283.307l-144.384 144.896 144.384 144.896-72.192 72.192-144.896-144.384-144.896 144.384-72.192-72.192 144.896-144.896-144.896-144.896 72.192-72.192 144.896 144.896 144.896-144.896 72.192 72.192zM512 836.267c226.216 0 409.6-183.384 409.6-409.6s-183.384-409.6-409.6-409.6c-226.216 0-409.6 183.384-409.6 409.6v0c0 226.216 183.384 409.6 409.6 409.6v0zM512 938.667c-282.77 0-512-229.23-512-512s229.23-512 512-512c282.77 0 512 229.23 512 512v0c0 282.77-229.23 512-512 512v0z" />
<glyph unicode="&#xe917;" glyph-name="minus-filled-circle" d="M512 938.667c-282.77 0-512-229.23-512-512s229.23-512 512-512c282.77 0 512 229.23 512 512v0c0 282.77-229.23 512-512 512v0zM771.072 375.467h-512v102.4h512z" />
<glyph unicode="&#xe918;" glyph-name="thin-down-arrow" d="M68.267 709.486l-68.267-73.143 516.876-492.495 507.124 487.619-68.267 68.267-438.857-419.352z" />
<glyph unicode="&#xe919;" glyph-name="thin-left-arrow" horiz-adv-x="564" d="M564.444-18.010l-70.251-67.323-494.193 517.122 487.364 506.878 70.251-67.811-422.479-439.066 429.309-449.799z" />
<glyph unicode="&#xe91a;" glyph-name="thin-right-arrow" horiz-adv-x="564" d="M0-18.010l70.738-67.323 493.706 517.122-487.364 506.878-70.251-67.811 422.479-439.066-429.309-449.799z" />
<glyph unicode="&#xe91b;" glyph-name="thin-up-arrow" d="M68.267 143.848l-68.267 73.143 516.876 492.495 507.124-487.619-68.267-68.267-438.857 419.352z" />
<glyph unicode="&#xe91c;" glyph-name="down-arrow" d="M135.245 745.459l-135.245-144.906 521.66-492.679 502.34 492.679-125.585 135.245-376.755-357.434z" />
<glyph unicode="&#xe91d;" glyph-name="person-outline-circle" horiz-adv-x="1022" d="M514.301 376.311c-112.939 0-204.493 91.555-204.493 204.493s91.555 204.493 204.493 204.493c112.939 0 204.493-91.555 204.493-204.493v0c0-112.939-91.555-204.493-204.493-204.493v0zM514.301 683.050c-56.469 0-102.247-45.777-102.247-102.247s45.777-102.247 102.247-102.247c56.469 0 102.247 45.777 102.247 102.247v0c0 56.469-45.777 102.247-102.247 102.247v0zM1022.466 427.434c0 282.346-228.887 511.233-511.233 511.233s-511.233-228.887-511.233-511.233v0 0 0c0-282.346 228.887-511.233 511.233-511.233s511.233 228.887 511.233 511.233v0 0zM718.794 75.705c-59.195-35.969-130.76-57.258-207.296-57.258-0.093 0-0.186 0-0.28 0h0.015c-1.010-0.009-2.205-0.014-3.401-0.014-72.68 0-140.932 18.958-200.081 52.199l2.055-1.062v102.247c0 28.235 22.889 51.123 51.123 51.123v0h306.74c28.235 0 51.123-22.889 51.123-51.123v0zM667.67 326.721h-306.74c-84.704 0-153.37-68.666-153.37-153.37v0-18.916c-65.249 72.18-105.177 168.33-105.177 273.806 0 225.877 183.11 408.987 408.987 408.987s408.987-183.11 408.987-408.987c0-102.36-37.604-195.938-99.75-267.672l0.434 0.512v10.736c0 84.704-68.666 153.37-153.37 153.37v0z" />
<glyph unicode="&#xe91e;" glyph-name="person-outline" horiz-adv-x="722" d="M360.775 457.634c-132.834 0-240.517 107.683-240.517 240.517s107.683 240.517 240.517 240.517c132.834 0 240.517-107.683 240.517-240.517v0c0-132.834-107.683-240.517-240.517-240.517v0zM360.775 818.409c-66.417 0-120.258-53.842-120.258-120.258s53.842-120.258 120.258-120.258c66.417 0 120.258 53.842 120.258 120.258v0c0 66.417-53.842 120.258-120.258 120.258v0zM721.55 202.084v0 15.032c0 99.625-80.762 180.388-180.388 180.388v0h-360.775c-99.625 0-180.388-80.762-180.388-180.388v0-188.204c98.241-72.716 221.802-116.394 355.564-116.394 138.343 0 265.774 46.72 367.375 125.243l-1.39-1.032v164.754zM120.258 96.858v120.258c0 33.208 26.921 60.129 60.129 60.129v0h360.775c33.208 0 60.129-26.921 60.129-60.129v0-115.448c-69.984-42.024-154.43-66.879-244.682-66.879-86.869 0-168.361 23.027-238.703 63.31l2.352-1.241z" />
<glyph unicode="&#xe91f;" glyph-name="right-left-arrow" d="M363.355 211.957l-82.581-77.075-280.774 297.29 280.774 286.28 77.075-77.075-203.699-209.204zM660.645 211.957l77.075-77.075 286.28 297.29-280.774 286.28-77.075-77.075 203.699-209.204z" />
<glyph unicode="&#xe920;" glyph-name="horizontal-hamburger-dot" d="M614.4 426.667c0-56.554-45.846-102.4-102.4-102.4s-102.4 45.846-102.4 102.4c0 56.554 45.846 102.4 102.4 102.4s102.4-45.846 102.4-102.4zM1024 426.667c0-56.554-45.846-102.4-102.4-102.4s-102.4 45.846-102.4 102.4c0 56.554 45.846 102.4 102.4 102.4s102.4-45.846 102.4-102.4zM204.8 426.667c0-56.554-45.846-102.4-102.4-102.4s-102.4 45.846-102.4 102.4c0 56.554 45.846 102.4 102.4 102.4s102.4-45.846 102.4-102.4z" />
<glyph unicode="&#xe921;" glyph-name="left-arrow" horiz-adv-x="633" d="M632.669 47.354l-139.418-132.687-493.251 517.288 487.482 506.712 138.456-133.649-359.602-374.024 366.332-383.639z" />
<glyph unicode="&#xe922;" glyph-name="right-arrow" horiz-adv-x="633" d="M0 47.354l139.418-132.687 493.251 517.288-487.482 506.712-138.456-133.649 359.602-374.024-366.332-383.639z" />
<glyph unicode="&#xe923;" glyph-name="up-arrow" d="M145.614 116.648l-131.523 131.523 507.303 488.514 488.514-479.119-122.128-131.523-366.385 347.596z" />
<glyph unicode="&#xe924;" glyph-name="vertical-hamburger-dot" horiz-adv-x="205" d="M204.8 426.667c0-56.554-45.846-102.4-102.4-102.4s-102.4 45.846-102.4 102.4c0 56.554 45.846 102.4 102.4 102.4s102.4-45.846 102.4-102.4zM204.8 17.067c0-56.554-45.846-102.4-102.4-102.4s-102.4 45.846-102.4 102.4c0 56.554 45.846 102.4 102.4 102.4s102.4-45.846 102.4-102.4zM204.8 836.267c0-56.554-45.846-102.4-102.4-102.4s-102.4 45.846-102.4 102.4c0 56.554 45.846 102.4 102.4 102.4s102.4-45.846 102.4-102.4z" />
<glyph unicode="&#xe925;" glyph-name="add-outline" d="M771.072 479.403h-204.8v204.8h-102.4v-204.8h-204.8v-102.4h204.8v-204.8h102.4v204.8h204.8v102.4zM512 836.267c226.216 0 409.6-183.384 409.6-409.6s-183.384-409.6-409.6-409.6c-226.216 0-409.6 183.384-409.6 409.6v0c0 226.216 183.384 409.6 409.6 409.6v0zM512 938.667c-282.77 0-512-229.23-512-512s229.23-512 512-512c282.77 0 512 229.23 512 512v0c0 282.77-229.23 512-512 512v0z" />
<glyph unicode="&#xe926;" glyph-name="minus-outline" d="M259.072 479.403h512v-102.4h-512v102.4zM512 836.267c226.216 0 409.6-183.384 409.6-409.6s-183.384-409.6-409.6-409.6c-226.216 0-409.6 183.384-409.6 409.6v0c0 226.216 183.384 409.6 409.6 409.6v0zM512 938.667c-282.77 0-512-229.23-512-512s229.23-512 512-512c282.77 0 512 229.23 512 512v0c0 282.77-229.23 512-512 512v0z" />
<glyph unicode="&#xe927;" glyph-name="thin-back-arrow" horiz-adv-x="1044" d="M1044.365 479.146h-838.625l394.77 386.415-77.805 73.106-522.705-511.739 522.705-512.261 77.805 73.106-394.77 386.937h838.625v104.437z" />
<glyph unicode="&#xe928;" glyph-name="thin-minus" d="M563.717 374.95h460.283v103.434h-1024v-103.434h460.283z" />
<glyph unicode="&#xe929;" glyph-name="thin-plus" d="M1024 374.95v103.434h-460.283v460.283h-103.434v-460.283h-460.283v-103.434h460.283v-460.283h103.434v460.283h460.283z" />
<glyph unicode="&#xe92a;" glyph-name="calendar" horiz-adv-x="956" d="M819.2 870.4v68.267h-204.8v-68.267h-273.067v68.267h-204.8v-68.267h-136.533v-955.733h955.733v955.733zM819.2 51.2h-682.667v546.133h682.667z" />
<glyph unicode="&#xe92b;" glyph-name="star-circle" d="M512 938.667c-282.77 0-512-229.23-512-512s229.23-512 512-512c282.77 0 512 229.23 512 512v0c0 282.77-229.23 512-512 512v0zM710.144 138.923l-192 102.4-191.488-102.4 36.352 216.064-153.6 153.6 212.992 30.72 95.744 194.56 96.256-194.56 214.016-31.744-153.6-153.6zM451.584 831.659l-25.088-51.2-72.192-148.992-212.48-31.232c58.52 122 172.296 209.352 307.993 230.113l2.279 0.287zM586.752 830.635c131.275-24.8 238.684-109.43 294.357-223.873l1.067-2.431-38.4 5.632-161.28 21.504-72.192 148.992-24.064 51.2zM102.4 466.091l31.744-31.232 121.856-115.712-27.648-163.328-3.584-18.432c-74.923 73.727-121.586 175.979-122.367 289.133l-0.001 0.147c-0.372 5.892-0.583 12.777-0.583 19.712s0.212 13.82 0.629 20.65l-0.046-0.938zM921.6 454.315c0-9.216 0-18.432 0-27.648-0.074-107.475-41.53-205.253-109.294-278.276l0.238 0.26v7.168l-29.184 163.328 117.248 115.712 20.992 19.456zM518.144 124.587l143.872-76.288h3.072c-45.197-19.268-97.736-30.698-152.883-31.23l-0.205-0.002c-52.455 0.145-102.588 9.898-148.793 27.591l2.873-0.967 8.704 4.608 143.36 76.288zM512 938.667c-282.77 0-512-229.23-512-512s229.23-512 512-512c282.77 0 512 229.23 512 512v0c0 282.77-229.23 512-512 512v0zM326.656 138.923l36.352 216.064-153.6 153.6 212.992 30.72 95.744 194.56 96.256-194.56 214.016-31.744-153.6-153.6 36.864-216.064-192 102.4-191.488-102.4z" />
<glyph unicode="&#xe92c;" glyph-name="thin-x" d="M1024 844.972l-93.695 93.695-417.973-417.973-418.637 417.973-93.695-93.695 417.973-418.637-417.973-417.973 93.695-93.695 418.637 417.973 417.973-417.973 93.695 93.695-417.973 417.973 417.973 418.637z" />
<glyph unicode="&#xe92d;" glyph-name="clock" d="M512 810.667c212.077 0 384-171.923 384-384s-171.923-384-384-384c-212.077 0-384 171.923-384 384v0c0 212.077 171.923 384 384 384v0zM512 938.667c-282.77 0-512-229.23-512-512s229.23-512 512-512c282.77 0 512 229.23 512 512v0c0 282.77-229.23 512-512 512v0zM515.072 428.203v256h-102.4v-358.4h307.2v102.4h-204.8z" />
<glyph unicode="&#xe92e;" glyph-name="eye" horiz-adv-x="1375" d="M687.787-85.333c-312.773 0.175-578.733 200.41-676.861 479.665l-1.539 5.029-9.387 27.307 9.387 27.307c99.599 284.052 365.426 484.089 677.973 484.089s578.373-200.036 676.435-479.066l1.538-5.023 9.387-27.307-9.387-27.307c-99.136-284.325-364.942-484.683-677.545-484.693h-0.001zM180.907 426.667c82.869-202.648 278.505-342.825 506.88-342.825s424.011 140.177 505.559 339.183l1.321 3.642c-82.869 202.648-278.505 342.825-506.88 342.825s-424.011-140.177-505.559-339.183l-1.321-3.642zM901.12 426.667c0-117.821-95.513-213.333-213.333-213.333s-213.333 95.513-213.333 213.333c0 117.821 95.513 213.333 213.333 213.333s213.333-95.513 213.333-213.333zM687.787 170.667c-141.385 0-256 114.615-256 256s114.615 256 256 256c141.385 0 256-114.615 256-256v0c0-141.385-114.615-256-256-256v0zM687.787 597.334c-94.257 0-170.667-76.41-170.667-170.667s76.41-170.667 170.667-170.667c94.257 0 170.667 76.41 170.667 170.667v0c0 94.257-76.41 170.667-170.667 170.667v0z" />
<glyph unicode="&#xe92f;" glyph-name="group" d="M646.465 576.647c0-74.263-60.202-134.465-134.465-134.465s-134.465 60.202-134.465 134.465c0 74.263 60.202 134.465 134.465 134.465s134.465-60.202 134.465-134.465zM713.697 302.546v10.343c0 56.889-46.545 98.263-98.263 98.263 0 0 0 0 0 0h-206.869c-56.889 0-98.263-46.545-98.263-98.263v0-108.606c56.889-41.374 129.293-62.061 201.697-56.889 72.404 0 144.808 25.859 201.697 67.232v0 87.919zM982.626 488.728c0-39.988-32.416-72.404-72.404-72.404s-72.404 32.416-72.404 72.404c0 39.988 32.416 72.404 72.404 72.404s72.404-32.416 72.404-72.404zM1024 333.576v0c0 36.202-25.859 62.061-56.889 62.061h-108.606c-31.030 0-56.889-25.859-56.889-56.889 0 0 0 0 0 0v-56.889c67.232-46.545 155.152-46.545 222.384 0v0 51.717zM201.697 509.414c0-45.7-37.047-82.747-82.747-82.747s-82.747 37.047-82.747 82.747c0 45.7 37.047 82.747 82.747 82.747s82.747-37.047 82.747-82.747zM243.071 343.92v0c0 36.202-25.859 67.232-62.061 67.232 0 0 0 0 0 0h-118.949c-36.202 0-62.061-25.859-62.061-62.061v-62.061c72.404-51.717 170.667-51.717 243.071 0v0 56.889z" />
<glyph unicode="&#xe930;" glyph-name="star-circle-inverse" d="M512 836.267c226.216 0 409.6-183.384 409.6-409.6s-183.384-409.6-409.6-409.6c-226.216 0-409.6 183.384-409.6 409.6v0c0 226.216 183.384 409.6 409.6 409.6v0zM512 938.667c-282.77 0-512-229.23-512-512s229.23-512 512-512c282.77 0 512 229.23 512 512v0c0 282.77-229.23 512-512 512v0zM515.072 635.051l63.488-129.536 141.312-20.992-102.4-100.864 24.576-142.336-126.976 67.072-126.464-67.072 24.064 142.336-102.4 100.864 141.824 20.992 62.976 129.536zM709.632 147.115l-194.56 102.4-194.56-102.4 37.888 219.136-156.672 153.6 216.576 31.744 97.28 199.68 98.816-199.168 216.576-31.744-156.672-153.6zM515.072 366.763l58.88-31.232-10.752 66.048 48.128 47.104-66.56 9.728-29.184 59.904-29.696-59.904-66.048-9.728 48.128-47.104-11.264-66.048z" />
<glyph unicode="&#xe931;" glyph-name="bell" horiz-adv-x="819" d="M237.568 68.267c8.539-87.22 81.495-154.819 170.24-154.819s161.701 67.6 170.184 154.115l0.056 0.704zM716.8 262.827v286.72c0.076 2.433 0.12 5.295 0.12 8.167 0 130.054-89.136 239.289-209.649 269.946l-1.927 0.416c-14.848 64.512-51.712 110.592-95.744 110.592s-79.872-45.056-95.232-109.056c-122.546-29.222-212.265-137.782-212.265-267.298 0-4.49 0.108-8.955 0.321-13.392l-0.024 0.626v-286.72c0-6.656-102.4-136.704-102.4-143.36h819.2c0 6.656-102.4 136.704-102.4 143.36z" />
<glyph unicode="&#xe932;" glyph-name="phone-circle" d="M512 938.667c-282.77 0-512-229.23-512-512s229.23-512 512-512c282.77 0 512 229.23 512 512v0c0 282.77-229.23 512-512 512v0zM768 159.915c-30.142-32.548-69.079-56.547-113.033-68.234l-1.655-0.374c-14.588-3.866-31.337-6.086-48.604-6.086-6.865 0-13.647 0.351-20.331 1.036l0.839-0.070c-23.425 3.104-44.667 9.396-64.35 18.489l1.374-0.569c-45.68 20.107-84.711 47.003-117.777 79.889l0.017-0.017c-18.103 18.2-34.894 37.751-50.191 58.473l-1.009 1.431c-22.528 30.72-45.056 61.44-65.536 93.696-20.611 31.082-37.989 66.864-50.327 104.917l-0.873 3.115c-9.149 24.175-16.159 52.383-19.784 81.639l-0.184 1.817c-1.019 8.388-1.601 18.101-1.601 27.949 0 44.725 11.997 86.648 32.949 122.726l-0.628-1.171c12.569 21.261 27.524 39.476 44.852 55.114l0.204 0.182c12.68 12.898 27.593 23.553 44.12 31.347l0.936 0.397c7.327 3.608 15.912 5.842 24.987 6.141l0.101 0.003c0.342 0.010 0.743 0.016 1.147 0.016 13.585 0 25.625-6.614 33.077-16.797l0.081-0.115c21.209-28.46 38.596-61.393 50.48-96.85l0.72-2.478c4.599-12.461 7.389-26.851 7.678-41.855l0.002-0.129c0.186-1.693 0.291-3.656 0.291-5.644 0-18.914-9.584-35.588-24.161-45.433l-0.194-0.124-44.032-30.72c-15.829-8.914-26.344-25.61-26.344-44.762 0-5.973 1.023-11.707 2.903-17.036l-0.11 0.359c4.521-19.395 11.033-36.47 19.501-52.344l-0.557 1.144c24.387-46.839 53.546-87.108 87.702-122.525l-0.15 0.157c7.715-9.218 16.285-17.301 25.712-24.292l0.4-0.284c10.824-8.275 24.536-13.272 39.415-13.312h0.009c12.748 1.007 24.104 6.277 32.801 14.367l-0.033-0.031c6.656 5.632 12.8 12.8 19.968 18.432 12.548 11.4 28.146 19.664 45.424 23.432l0.656 0.12c3.544 0.732 7.617 1.151 11.789 1.151 15.069 0 28.861-5.471 39.497-14.534l-0.086 0.071c28.274-23.138 53.287-48.313 75.525-75.825l0.763-0.975c8.57-9.689 14.445-21.947 16.343-35.481l0.041-0.359c0.004-0.217 0.006-0.473 0.006-0.73 0-10.932-4.079-20.911-10.798-28.499l0.039 0.045z" />
<glyph unicode="&#xe933;" glyph-name="phone-outline-circle" d="M512 836.267c226.216 0 409.6-183.384 409.6-409.6s-183.384-409.6-409.6-409.6c-226.216 0-409.6 183.384-409.6 409.6v0c0 226.216 183.384 409.6 409.6 409.6v0zM512 938.667c-282.77 0-512-229.23-512-512s229.23-512 512-512c282.77 0 512 229.23 512 512v0c0 282.77-229.23 512-512 512v0zM579.072 83.627c-23.865 2.603-45.691 8.57-65.945 17.457l1.433-0.561c-46.939 18.892-87.296 44.291-122.243 75.605l0.387-0.341c-18.232 17.421-35.001 35.976-50.347 55.693l-0.853 1.139c-23.552 28.672-46.080 57.856-68.096 88.064-21.574 29.503-40.040 63.308-53.793 99.437l-0.991 2.963c-9.572 23.144-16.923 50.079-20.795 78.125l-0.197 1.747c-1.2 8.413-1.886 18.129-1.886 28.005 0 41.253 11.958 79.713 32.597 112.103l-0.503-0.845c12.877 19.68 27.955 36.549 45.201 50.903l0.367 0.297c13.194 12.177 28.621 22.184 45.558 29.31l1.034 0.386c7.568 3.127 16.349 4.997 25.551 5.119l0.049 0.001c0.285 0.007 0.621 0.010 0.957 0.010 13.58 0 25.725-6.148 33.802-15.813l0.057-0.070c21.828-27.132 39.977-58.46 52.96-92.345l0.8-2.375c4.362-11.035 7.132-23.803 7.673-37.147l0.007-0.229c0.073-0.99 0.114-2.146 0.114-3.31 0-17.766-9.627-33.285-23.949-41.622l-0.229-0.123-45.056-28.672c-15.867-7.946-26.569-24.079-26.569-42.712 0-5.992 1.107-11.725 3.127-17.006l-0.11 0.326c4.969-17.328 11.78-32.459 20.414-46.337l-0.446 0.769c25.638-44.211 56.066-82.139 91.344-114.92l0.304-0.28c8.022-8.786 16.917-16.543 26.617-23.215l0.519-0.337c11.039-7.692 24.734-12.289 39.502-12.289 0.152 0 0.305 0 0.457 0.001h-0.023c12.754 0.469 24.312 5.229 33.362 12.867l-0.082-0.067 20.48 17.408c13.023 10.681 28.981 18.27 46.482 21.411l0.622 0.093c3.322 0.597 7.147 0.938 11.051 0.938 15.194 0 29.18-5.17 40.295-13.848l-0.145 0.109c29.315-21.981 55.123-45.678 78.402-71.685l0.446-0.507c8.761-8.987 14.948-20.522 17.346-33.39l0.062-0.402c0.275-1.681 0.433-3.618 0.433-5.591 0-10.793-4.703-20.487-12.173-27.145l-0.036-0.032c-31.368-30.52-70.928-52.776-115.068-63.157l-1.668-0.331c-13.68-3.060-29.392-4.813-45.513-4.813-8.135 0-16.166 0.446-24.070 1.316l0.975-0.087z" />
<glyph unicode="&#xe934;" glyph-name="phone-outline" horiz-adv-x="840" d="M560.647-85.333c-4.576-0.256-9.931-0.402-15.32-0.402s-10.744 0.146-16.061 0.434l0.741-0.032c-37.093 3.865-70.962 14.361-101.539 30.303l1.558-0.739c-65.892 29.266-122.068 68.745-169.216 117.072l-0.107 0.11c-25.541 26-49.183 54.078-70.577 83.878l-1.452 2.127c-32.79 45.69-61.279 87.618-86.543 127.933-29.004 44.84-53.792 96.438-71.753 151.132l-1.351 4.753c-12.936 36.233-23.115 78.751-28.707 122.7l-0.32 3.083c-1.205 11.496-1.893 24.837-1.893 38.338 0 70.703 18.854 137.003 51.81 194.146l-1.001-1.883c19.010 32.49 41.297 60.424 67.017 84.767l0.174 0.163c20.9 21.688 45.434 39.695 72.653 53.075l1.526 0.678c15.698 7.769 34.127 12.485 53.614 12.898l0.139 0.002c0.331 0.004 0.721 0.006 1.112 0.006 35.989 0 67.849-17.684 87.361-44.838l0.219-0.321c31.727-42.204 57.806-91.017 75.771-143.591l1.096-3.693c7.715-21.942 12.231-47.243 12.363-73.581v-0.061c0.022-0.885 0.034-1.928 0.034-2.974 0-42.931-21.058-80.944-53.408-104.273l-0.379-0.26-23.651-17.739-33.865-23.651c-8.063-5.913-12.363-10.213-9.138-27.414 5.57-20.119 12.721-37.613 21.627-54.014l-0.664 1.336c28.324-57.618 62.593-107.174 103.049-150.925l-0.38 0.416 6.988-6.988c5.471-6.809 11.467-12.805 18.050-18.1l0.226-0.176c11.826-8.063 16.126-8.063 17.201-8.063 3.756 0.789 7.031 2.488 9.697 4.857l-0.021-0.019 9.676 10.213 16.664 18.276c23.867 20.896 53.67 35.583 86.561 41.24l1.057 0.15c8.090 1.805 17.382 2.839 26.916 2.839 32.576 0 62.333-12.074 85.037-31.992l-0.147 0.126c39.718-33.249 74.968-69.352 106.343-108.684l1.164-1.511c16.652-20.563 28.010-46.052 31.635-73.969l0.079-0.748c0.644-4.421 1.012-9.525 1.012-14.715 0-28.686-11.235-54.747-29.545-74.025l0.044 0.046c-45.743-50.574-105.025-88.098-172.133-106.893l-2.565-0.613c-22.958-6.489-49.323-10.219-76.559-10.219-0.675 0-1.35 0.002-2.025 0.007l0.104-0.001zM245.115 831.16c-3.805-0.324-7.28-1.481-10.325-3.287l0.112 0.061c-16.875-8.503-31.27-19.293-43.473-32.181l-0.067-0.071c-18.921-17.761-35.298-37.9-48.742-60.019l-0.711-1.26c-22.779-39.249-36.222-86.364-36.222-136.619 0-11.145 0.661-22.136 1.946-32.935l-0.127 1.306c3.897-37.801 11.862-72.415 23.549-105.264l-0.972 3.133c16.703-50.049 37.817-93.432 63.727-133.419l-1.373 2.261c24.189-38.702 51.066-78.48 82.78-122.020 19.408-27.369 39.528-51.412 61.383-73.749l-0.105 0.107c37.91-39.126 83.037-70.999 133.272-93.515l2.723-1.091c18.933-8.51 40.896-14.749 63.905-17.623l1.136-0.116c6.428-0.757 13.874-1.189 21.422-1.189 17.026 0 33.538 2.199 49.268 6.328l-1.348-0.301c49.263 13.786 91.090 40.643 122.86 76.596l0.235 0.271c0.146 1.103 0.229 2.379 0.229 3.674 0 8.51-3.596 16.181-9.351 21.575l-0.016 0.015c-27.546 34.969-57.524 65.799-90.402 93.273l-0.979 0.795c-3.727 3.905-8.973 6.332-14.785 6.332-2.207 0-4.332-0.35-6.323-0.998l0.145 0.041c-13.711-3.090-25.566-9.7-34.957-18.83l0.017 0.016-11.288-10.751-13.976-13.976c-19.999-18.546-46.352-30.491-75.455-32.236l-0.338-0.016c-1.563-0.067-3.396-0.105-5.238-0.105-29.681 0-57.041 9.941-78.931 26.675l0.314-0.23c-14.249 10.224-26.61 21.732-37.37 34.622l-0.258 0.317-5.375 5.913c-47.729 50.607-88.301 108.699-119.634 172.168l-1.849 4.143c-12.226 22.287-22.208 48.104-28.61 75.303l-0.417 2.102c-2.564 9.465-4.037 20.332-4.037 31.543 0 44.126 22.819 82.921 57.3 105.231l0.49 0.297 32.79 23.651 24.727 17.739c3.225 0 8.063 5.913 8.601 21.501-0.308 14.139-2.842 27.586-7.265 40.143l0.277-0.903c-16.010 44.159-37.090 82.39-63.135 116.641l0.781-1.071z" />
<glyph unicode="&#xe935;" glyph-name="star-outline" horiz-adv-x="1076" d="M870.821-85.333l-332.73 175.062-332.73-175.062 63.965 370.884-269.326 260.348 372.007 56.11 168.329 336.658 168.329-336.658 371.445-56.11-268.765-262.032zM538.091 216.537l183.478-96.508-34.788 201.433 148.69 144.763-205.361 30.299-92.020 188.528-89.214-185.723-207.605-30.299 148.129-147.568-34.788-204.239z" />
<glyph unicode="&#xe936;" glyph-name="add-contact" horiz-adv-x="1022" d="M360.775 457.634c-132.834 0-240.517 107.683-240.517 240.517s107.683 240.517 240.517 240.517c132.834 0 240.517-107.683 240.517-240.517v0c0-132.834-107.683-240.517-240.517-240.517v0zM721.55 202.084v0 15.032c0 99.625-80.762 180.388-180.388 180.388v0h-360.775c-99.625 0-180.388-80.762-180.388-180.388v0-188.204c98.241-72.716 221.802-116.394 355.564-116.394 138.343 0 265.774 46.72 367.375 125.243l-1.39-1.032v164.754zM1022.196 577.892h-120.258v120.258h-120.258v-120.258h-120.258v-120.258h120.258v-120.258h120.258v120.258h120.258v120.258z" />
<glyph unicode="&#xe937;" glyph-name="backspace" d="M1024 93.727h-755.41l-268.59 335.738 268.59 335.738h755.41v-671.475zM324.546 205.64h587.541v447.65h-587.541l-179.060-223.825 179.060-223.825zM856.131 317.552l-111.913 111.913 111.913 111.913-55.956 55.956-111.913-111.913-111.913 111.913-55.956-55.956 111.913-111.913-111.913-111.913 55.956-55.956 111.913 111.913 111.913-111.913z" />
<glyph unicode="&#xe938;" glyph-name="send" horiz-adv-x="1022" d="M0 515.606l1022.197 423.061-421.258-1024-180.282 180.282-63.7-129.803-56.488 249.991 721.127 721.127-781.221-661.033-240.376 240.376z" />
<glyph unicode="&#xe939;" glyph-name="tag" horiz-adv-x="717" d="M538.593 938.667h-360.693l-177.901-251.873v-772.127h717.106v773.349zM358.247 770.548c50.645 0 91.701-41.056 91.701-91.701s-41.056-91.701-91.701-91.701c-50.645 0-91.701 41.056-91.701 91.701v0c0 50.645 41.056 91.701 91.701 91.701v0z" />
<glyph unicode="&#xe93a;" glyph-name="availability-no" horiz-adv-x="956" d="M819.2 870.4v68.267h-204.8v-68.267h-273.067v68.267h-204.8v-68.267h-136.533v-955.733h955.733v955.733zM819.2 51.2h-682.667v546.133h682.667zM682.667 187.734l-136.533 136.533 136.533 136.533-68.267 68.267-136.533-136.533-136.533 136.533-68.267-68.267 136.533-136.533-136.533-136.533 68.267-68.267 136.533 136.533 136.533-136.533 68.267 68.267z" />
<glyph unicode="&#xe93b;" horiz-adv-x="956" d="M819.2 870.4v68.267h-204.8v-68.267h-273.067v68.267h-204.8v-68.267h-136.533v-955.733h955.733v955.733zM819.2 51.2h-682.667v546.133h682.667z" />
<glyph unicode="&#xe93c;" horiz-adv-x="956" d="M390.485 119.467l-185.685 196.608 81.92 88.064 107.179-113.323 278.528 270.336 78.507-91.477-360.448-350.208z" />
<glyph unicode="&#xe93d;" glyph-name="speech" horiz-adv-x="1320" d="M663.52 938.667c-364.441 0-663.52-198.066-663.52-441.687 4.713-121.894 66.812-228.354 159.891-293.658l1.203-0.8 36.972-287.856 308.322 145.248c44.774-7.69 96.8-12.463 149.803-13.196l0.727-0.008c364.441 0 660.219 198.066 663.52 442.347s-292.477 449.609-656.918 449.609z" />
<glyph unicode="&#xe93e;" glyph-name="save" horiz-adv-x="1321" d="M0 938.667h1321.29v-264.258h-1321.29v264.258zM0 492.732h1321.29l-660.645-578.065-660.645 578.065z" />
<glyph unicode="&#xe93f;" glyph-name="search" horiz-adv-x="1036" d="M0 547.138c0.342-216.098 175.431-391.187 391.496-391.529h0.033c4.68-0.227 10.163-0.357 15.677-0.357 72.941 0 140.588 22.666 196.282 61.338l-1.135-0.746 301.176-301.176 120.471 120.471-301.176 301.176c38.535 59.639 61.44 132.513 61.44 210.737 0 216.568-175.563 392.132-392.132 392.132-216.538 0-392.083-175.515-392.132-392.042v-0.004zM150.588 547.138c0 133.068 107.873 240.941 240.941 240.941s240.941-107.873 240.941-240.941c0-133.068-107.873-240.941-240.941-240.941v0c-133.068 0-240.941 107.873-240.941 240.941v0z" />
<glyph unicode="&#xe940;" glyph-name="person" horiz-adv-x="722" d="M601.292 698.15c0-132.834-107.683-240.517-240.517-240.517s-240.517 107.683-240.517 240.517c0 132.834 107.683 240.517 240.517 240.517s240.517-107.683 240.517-240.517zM721.55 202.084v15.032c0 99.625-80.762 180.388-180.388 180.388v0h-360.775c-99.625 0-180.388-80.762-180.388-180.388v0-188.204c98.241-72.716 221.802-116.394 355.564-116.394 138.343 0 265.774 46.72 367.375 125.243l-1.39-1.032v164.754z" />
<glyph unicode="&#xe941;" glyph-name="phone" horiz-adv-x="818" d="M537.009-84.234c-33.899 4.249-64.706 13.538-93.035 27.16l1.793-0.777c-66.382 29.433-123.055 68.855-170.911 117.045l-0.031 0.031c-25.928 26.982-50.268 56.031-72.557 86.668l-1.646 2.375c-32.979 45.621-64.859 91.792-94.54 139.611-30.193 46.643-55.923 100.326-74.472 157.252l-1.38 4.895c-13.664 36.851-24.269 79.943-29.927 124.578l-0.304 2.941c-1.254 11.485-1.97 24.805-1.97 38.292 0 67.779 18.068 131.338 49.65 186.124l-0.96-1.807c17.619 32.030 38.639 59.531 63.143 83.482l0.067 0.065c19.182 18.604 41.525 34.089 66.122 45.549l1.486 0.621c10.757 5.316 23.386 8.534 36.739 8.793l0.087 0.001c0.781 0.040 1.696 0.062 2.617 0.062 19.358 0 36.379-10.008 46.172-25.131l0.13-0.215c31.721-42.256 57.979-91.038 76.349-143.526l1.152-3.781c6.501-18.843 10.313-40.559 10.443-63.149v-0.061c0.055-1.136 0.086-2.467 0.086-3.806 0-28.21-13.8-53.197-35.018-68.579l-0.246-0.17c-21.436-14.841-42.323-30.78-64.309-45.621-21.536-15.317-35.416-40.183-35.416-68.29 0-8.578 1.293-16.853 3.694-24.643l-0.157 0.592c7.213-27.693 16.61-51.823 28.406-74.505l-0.923 1.951c34.98-69.604 76.949-129.479 126.291-182.39l-0.421 0.456c11.534-13.876 24.147-26.141 37.94-36.971l0.535-0.405c14.779-11.653 33.671-18.691 54.205-18.691 0.267 0 0.534 0.001 0.8 0.004h-0.041c18.526 0.936 35.067 8.737 47.273 20.889l-0.003-0.003c9.894 8.794 19.238 19.238 29.132 28.032 18.26 16.676 40.945 28.81 66.086 34.445l0.971 0.183c5.596 1.345 12.021 2.117 18.626 2.117 21.41 0 40.927-8.107 55.648-21.419l-0.072 0.064c40.577-34.319 76.628-71.589 108.693-112.155l1.237-1.622c12.495-15.039 20.981-33.823 23.581-54.44l0.054-0.525c0.386-2.634 0.606-5.676 0.606-8.769 0-16.807-6.503-32.095-17.13-43.486l0.035 0.037c-43.129-48.276-99.046-84.275-162.437-102.722l-2.458-0.613c-19.784-5.168-42.496-8.136-65.901-8.136-11.839 0-23.501 0.759-34.939 2.232l1.353-0.142z" />
<glyph unicode="&#xe942;" glyph-name="dollar-sign-outline" d="M512 836.267c226.216 0 409.6-183.384 409.6-409.6s-183.384-409.6-409.6-409.6c-226.216 0-409.6 183.384-409.6 409.6v0c0 226.216 183.384 409.6 409.6 409.6v0zM512 938.667c-282.77 0-512-229.23-512-512s229.23-512 512-512c282.77 0 512 229.23 512 512v0c0 282.77-229.23 512-512 512v0zM530.432 625.323v-41.984c15.755-2.026 29.849-7.866 41.724-16.56l-0.252 0.176c12.102-10.762 22.191-23.464 29.849-37.671l0.359-0.729-38.912-23.552c-8.49 20.3-28.188 34.304-51.156 34.304-0.015 0-0.031 0-0.046 0h0.002c-1.006 0.082-2.178 0.128-3.361 0.128-10.845 0-20.774-3.92-28.447-10.421l0.064 0.053c-7.548-6.427-12.305-15.938-12.305-26.56 0-0.383 0.006-0.764 0.018-1.144l-0.001 0.055c-0.007-0.252-0.011-0.548-0.011-0.845 0-9.506 3.925-18.095 10.243-24.235l0.008-0.008c11.29-9.485 24.316-17.414 38.447-23.198l0.977-0.354c16.582-7.12 30.539-14.485 43.841-22.8l-1.345 0.784c9.781-5.511 18.198-11.971 25.59-19.445l0.010-0.011c14.922-16.106 24.076-37.741 24.076-61.515 0-0.514-0.004-1.027-0.013-1.539l0.001 0.077c0.005-0.359 0.007-0.784 0.007-1.209 0-23.766-8.096-45.641-21.681-63.017l0.17 0.226c-14.423-18.11-34.294-31.331-57.114-37.214l-0.742-0.162v-44.032h-37.376v43.008c-24.545 2.225-46.432 12.122-63.611 27.242l0.123-0.106c-16.356 18.321-27.821 41.339-32.144 66.79l-0.112 0.794 46.592 10.24c4.342-18.003 12.53-33.678 23.681-46.747l-0.129 0.155c9.683-8.301 22.364-13.354 36.225-13.354 0.765 0 1.526 0.015 2.284 0.046l-0.109-0.003c0.467-0.014 1.017-0.023 1.568-0.023 14.73 0 28.089 5.868 37.868 15.394l-0.012-0.011c9.501 9.303 15.392 22.261 15.392 36.595 0 0.635-0.012 1.267-0.034 1.896l0.003-0.091c0.039 0.708 0.061 1.536 0.061 2.369 0 12.405-4.902 23.666-12.875 31.95l0.014-0.015c-5.726 5.003-12.092 9.575-18.873 13.511l-0.583 0.313c-9.016 5.387-19.94 11.035-31.2 16.066l-2.080 0.83c-21.025 8.098-39.058 19.549-54.364 33.878l0.092-0.086c-12.725 14.368-20.496 33.378-20.496 54.203 0 0.564 0.006 1.127 0.017 1.689l-0.001-0.084c-0.012 0.53-0.018 1.155-0.018 1.782 0 9.993 1.694 19.591 4.811 28.521l-0.184-0.607c3.711 9.225 8.54 17.179 14.446 24.198l-0.11-0.134c6.062 7.074 13.165 13.035 21.115 17.708l0.389 0.212c8.846 5.196 19.081 9.414 29.916 12.118l0.804 0.17v41.984zM546.816 143.019h-65.024v54.272c-29.54 4.945-55.399 18.077-75.878 36.957l0.102-0.093c-21.1 23.865-36.112 53.585-42.318 86.418l-0.178 1.134v9.728l75.776 15.872 2.56-8.704c5.326-19.76 14.518-36.918 26.782-51.391l-0.158 0.191c10.192-8.905 23.619-14.336 38.315-14.336 0.030 0 0.060 0 0.090 0h-0.005c0.637-0.025 1.384-0.039 2.135-0.039 15.456 0 29.496 6.060 39.873 15.934l-0.024-0.023c9.85 9.35 15.978 22.539 15.978 37.16 0 1.157-0.038 2.305-0.114 3.443l0.008-0.154c0.051 0.825 0.080 1.789 0.080 2.76 0 12.61-4.902 24.075-12.903 32.594l0.023-0.025c-6.584 5.288-13.944 10.363-21.663 14.891l-0.865 0.469c-11.059 6.947-24.004 13.795-37.453 19.707l-1.971 0.773c-27.323 10.141-50.7 25.12-70.19 44.076l0.046-0.044c-17.178 19.935-27.64 46.082-27.64 74.672 0 13.797 2.436 27.025 6.902 39.277l-0.254-0.797c4.57 12.426 10.993 23.133 19.049 32.379l-0.105-0.123c8.739 9.827 18.869 18.164 30.136 24.772l0.584 0.316c9.542 6.127 20.516 11.645 32.066 15.984l1.214 0.4v51.2h65.024v-51.2c17.974-3.783 33.807-11.096 47.425-21.22l-0.321 0.228c16.17-14.238 29.539-31.203 39.48-50.242l0.456-0.958 4.608-8.192-68.096-38.4-4.608 8.704c-8.5 20.793-27.977 35.46-51.036 36.856l-0.164 0.008c-0.677 0.037-1.47 0.058-2.267 0.058-11.355 0-21.706-4.298-29.515-11.356l0.038 0.034c-7.531-6.243-12.293-15.601-12.293-26.071 0-0.195 0.002-0.389 0.005-0.583v0.029c-0.021-0.435-0.033-0.945-0.033-1.458 0-9.062 3.737-17.251 9.754-23.111l0.007-0.007c13.048-10.598 28.118-19.41 44.432-25.725l1.136-0.387c21.363-9.639 38.998-19.040 55.971-29.417l-2.211 1.257c12.744-7.353 23.693-16.020 33.221-26.050l0.059-0.062c19.997-21.57 32.266-50.551 32.266-82.398 0-0.552-0.004-1.103-0.011-1.653l0.001 0.084c0-0.090 0-0.196 0-0.302 0-32.323-11.61-61.935-30.887-84.893l0.166 0.203c-17.318-21.796-40.72-38.077-67.632-46.334l-0.976-0.258zM501.248 209.579h21.504v42.496h5.632c20.855 6.005 38.37 18.048 51.040 34.094l0.16 0.21c12.456 15.761 19.981 35.92 19.981 57.836 0 0.547-0.005 1.093-0.014 1.638l0.001-0.082c0.017 0.61 0.026 1.327 0.026 2.047 0 21.44-8.394 40.92-22.075 55.333l0.033-0.035c-6.885 7.211-14.813 13.345-23.561 18.177l-0.503 0.255c-11.631 7.416-25.239 14.769-39.372 21.165l-2.1 0.851c-16.111 6.205-30.008 14.505-42.208 24.759l0.224-0.183c-5.979 7.137-9.611 16.418-9.611 26.548 0 2.013 0.143 3.993 0.421 5.93l-0.026-0.222c-0.004 0.228-0.007 0.497-0.007 0.767 0 12.961 5.733 24.583 14.802 32.468l0.052 0.045c9.063 8.277 21.177 13.346 34.475 13.346 0.66 0 1.317-0.012 1.971-0.037l-0.094 0.003c21.998-0.643 40.981-12.95 51.043-30.927l0.157-0.305 28.16 15.36c-6.386 11.684-14.61 21.542-24.401 29.557l-0.175 0.139c-10.456 7.74-23.166 13.037-36.978 14.806l-0.398 0.042h-6.656v40.96h-21.504v-40.448h-6.144c-10.879-2.834-20.42-6.867-29.192-12.061l0.52 0.285c-8.246-4.364-15.213-10.024-20.906-16.791l-0.086-0.105c-5.4-6.061-9.742-13.204-12.65-21.043l-0.15-0.461c-2.919-7.625-4.609-16.445-4.609-25.66 0-0.159 0.001-0.318 0.002-0.476v0.024c-0.040-0.891-0.063-1.935-0.063-2.985 0-18.657 7.231-35.625 19.044-48.255l-0.037 0.040c14.183-13.854 31.248-24.827 50.204-31.929l0.996-0.327c13.312-6.144 24.576-12.288 33.792-17.408 7.737-4.601 14.435-9.506 20.624-14.973l-0.144 0.125c9.524-9.769 15.399-23.135 15.399-37.873 0-0.726-0.014-1.448-0.042-2.166l0.003 0.103c0.037-0.763 0.058-1.657 0.058-2.557 0-16.345-6.9-31.079-17.947-41.447l-0.030-0.028c-11.208-10.781-26.467-17.421-43.277-17.421-0.446 0-0.89 0.005-1.334 0.014l0.066-0.001c-0.894-0.047-1.94-0.074-2.993-0.074-15.589 0-29.811 5.855-40.586 15.485l0.059-0.052c-10.863 11.801-19.022 26.264-23.386 42.29l-0.166 0.718-32.256-6.656c4.837-21.882 14.88-40.922 28.776-56.438l-0.104 0.118c15.887-14.406 36.323-24.061 58.915-26.581l0.477-0.043h6.656z" />
<glyph unicode="&#xe943;" glyph-name="dollar-sign" d="M512 938.667c-282.77 0-512-229.23-512-512s229.23-512 512-512c282.77 0 512 229.23 512 512v0c0 282.77-229.23 512-512 512v0zM652.288 195.755c-24.535-27.172-56.323-47.356-92.314-57.522l-1.382-0.334v-69.632h-88.064v67.072c-39.42 5.607-74.323 21.696-102.733 45.325l0.333-0.269c-28.497 28.849-48.805 65.846-57.116 107.185l-0.228 1.359-3.584 11.776 102.4 19.456 3.584-10.24c6.788-25.539 19.221-47.597 35.931-65.636l-0.091 0.1c13.961-10.32 31.514-16.518 50.516-16.518 1.682 0 3.352 0.049 5.010 0.144l-0.229-0.011c1.586-0.108 3.437-0.17 5.303-0.17 20.48 0 39.226 7.422 53.695 19.724l-0.118-0.098c13.565 11.531 22.115 28.609 22.115 47.683 0 1.237-0.036 2.466-0.107 3.685l0.008-0.168c0.098 1.188 0.154 2.572 0.154 3.968 0 15.61-6.986 29.589-18.002 38.98l-0.072 0.060c-8.668 6.913-18.385 13.362-28.647 18.935l-1.049 0.521c-14.336 7.68-32.768 16.384-53.76 25.088-37.687 12.012-70.279 30.385-98.196 54.095l0.404-0.335c-23.106 23.307-37.383 55.399-37.383 90.825 0 0.47 0.003 0.938 0.008 1.407l-0.001-0.071c-0.001 0.185-0.002 0.405-0.002 0.624 0 17.165 3.579 33.495 10.032 48.283l-0.303-0.779c6.086 15.531 14.765 28.814 25.625 39.962l-0.025-0.026c11.874 12.475 25.744 22.912 41.123 30.829l0.861 0.403c12.863 6.823 27.834 12.767 43.494 17.044l1.562 0.364v65.024h88.064v-65.536c24.253-3.99 45.856-12.996 64.519-25.941l-0.519 0.341c21.678-17.119 39.637-37.853 53.212-61.431l0.548-1.033 6.144-10.24-92.16-47.104-6.144 10.752c-13.233 27.507-40.74 46.233-72.657 46.592h-0.047c-0.796 0.034-1.729 0.053-2.667 0.053-15.444 0-29.669-5.22-41.007-13.992l0.154 0.115c-9.705-7.662-15.877-19.426-15.877-32.632 0-0.228 0.002-0.456 0.006-0.683v0.034c-0.019-0.45-0.030-0.979-0.030-1.509 0-11.227 4.95-21.298 12.787-28.149l0.044-0.037c17.89-13.547 38.594-24.665 60.911-32.306l1.553-0.462c29.337-11.899 53.25-23.406 76.378-36.162l-3.674 1.858c17.202-9.126 32.014-19.854 45.141-32.336l-0.085 0.080c26.845-25.844 43.52-62.088 43.52-102.227 0-0.061 0-0.121 0-0.182v0.009c0.046-1.417 0.072-3.083 0.072-4.755 0-38.671-13.965-74.080-37.126-101.46l0.191 0.231z" />
<glyph unicode="&#xe944;" glyph-name="graph" horiz-adv-x="1055" d="M1054.77-85.333h-1054.77v1024h178.896v-855.838h875.874v-168.162zM369.957 213.781l-107.338 106.622 245.445 245.445 195.354-130.236 225.409 281.94 118.071-94.457-311.994-389.993-207.519 138.108-157.428-157.428z" />
</font>
</defs>
</svg>
